<?xml version="1.0" encoding="utf-8"?>
<!-- Generator: Adobe Illustrator 24.0.1, SVG Export Plug-In . SVG Version: 6.00 Build 0)  -->
<svg version="1.1" id="Layer_1" xmlns="http://www.w3.org/2000/svg" xmlns:xlink="http://www.w3.org/1999/xlink" x="0px" y="0px"
	 viewBox="0 0 8192 5323.7" style="enable-background:new 0 0 8192 5323.7;" xml:space="preserve">
<style type="text/css">
	.st0{fill:#B32B87;}
	.st1{font-family:'ArialMT';}
	.st2{font-size:6.383px;}
	.st3{font-family:'MyriadPro-Regular';}
	.st4{font-size:12px;}
</style>
<title>achtergrond2</title>
<polygon class="st0" points="8192,8.4 0,3259 0,5323.7 2158.3,5323.7 8192,2929.5 "/>
<rect class="st0" width="2050.7" height="5323.7"/>
<text transform="matrix(1 0 0 1 3918.5596 2471.3203)" class="st1 st2">ff</text>
<text transform="matrix(1 0 0 1 3922.1982 2471.3203)" class="st1 st2">dc88</text>
<text transform="matrix(1 0 0 1 2664.1152 2664.1152)" class="st1 st2">db382e</text>
<text transform="matrix(1 0 0 1 3447.3965 2471.3203)" class="st1 st2">db382e</text>
<text transform="matrix(1 0 0 1 3447.3965 2471.3203)" class="st1 st2">db382e</text>
<text transform="matrix(1 0 0 1 2664.1152 2664.1152)" class="st1 st2">ba0074</text>
<text transform="matrix(1 0 0 1 3447.6201 2471.3203)" class="st1 st2">ba0074</text>
<text transform="matrix(1 0 0 1 523.0747 916.2979)" class="st3 st4">Lorem ipsum</text>
</svg>
